<svg width="101" height="68" viewBox="0 0 101 68" fill="none" xmlns="http://www.w3.org/2000/svg">
<path d="M51.1275 22.2966L51.7999 21.7003L48.2344 18.567L16.3762 46.7178L17.3255 47.5631L48.384 19.8387L51.1275 22.2966Z" fill="white"/>
<path d="M71.8196 40.8345V39.2938L51.7999 21.7003L51.1275 22.2966L71.8196 40.8345Z" fill="white"/>
<path d="M76.6076 45.1239V43.5014L71.8196 39.2938V40.8345L76.6076 45.1239Z" fill="white"/>
<path d="M87.8844 55.2267L88.9239 54.3251L76.6076 43.5014V45.1239L87.8844 55.2267Z" fill="white"/>
<path d="M44.1631 35.5041H49.959V40.6883H44.1631V35.5041Z" fill="white"/>
<path d="M51.723 35.5041H57.5189V40.6883H51.723V35.5041Z" fill="white"/>
<path d="M51.723 42.2661H57.5189V47.4504H51.723V42.2661Z" fill="white"/>
<path d="M44.1631 42.2661H49.959V47.4504H44.1631V42.2661Z" fill="white"/>
<path fill-rule="evenodd" clip-rule="evenodd" d="M93.9953 59.453H100.736V58.4387H93.9953V57.8752H93.2393V0.341553H92.1053V57.8752H91.4753V58.4387H77.1746V46.3497L87.8779 55.9387L88.9213 55.0338L90.322 56.2647L91.1167 55.5411L77.1746 43.2887V22.8817H76.0406V42.2922L72.3867 39.0811V14.3728H71.2527V38.0845L52.6071 21.6987L72.2818 4.25178L71.4835 3.53146L51.7981 20.9878L49.0424 18.566L58.7363 10.0001L57.9394 9.27856L48.2334 17.8551L33.5356 4.93861L32.7409 5.66214L47.4266 18.568L0.736328 59.8247L1.53327 60.5463L16.3747 47.432L17.3261 48.2791L48.3833 20.5559L50.3243 22.2948L12.8944 55.4864L13.6928 56.2067L51.1255 23.0126L71.2527 41.0443V58.4387H26.9644V59.453H91.4753V60.1292H92.1053V65.1443H93.2393V60.1292H93.9953V59.453ZM72.3867 58.4387V42.0602L76.0406 45.3338V58.4387H72.3867ZM77.1746 44.9141L87.8908 54.5147L88.1122 54.3227L77.1746 44.7107V44.9141ZM76.0406 43.7141V43.8982L72.3867 40.6246V40.503L76.0406 43.7141ZM71.2527 39.5065L65.2672 34.2464L71.2527 39.6087V39.5065ZM45.5608 21.6424L17.325 46.847L17.1814 46.7192L45.5608 21.6424ZM92.6093 59.1149V58.8895H92.8613V59.1149H92.6093ZM43.5961 34.997H50.526V41.1955H43.5961V34.997ZM44.7301 36.0113V40.1812H49.392V36.0113H44.7301ZM51.156 34.997H58.0859V41.1955H51.156V34.997ZM52.29 36.0113V40.1812H56.9519V36.0113H52.29ZM43.5961 41.759H50.526V47.9575H43.5961V41.759ZM44.7301 42.7733V46.9432H49.392V42.7733H44.7301ZM51.156 41.759H58.0859V47.9575H51.156V41.759ZM52.29 42.7733V46.9432H56.9519V42.7733H52.29Z" fill="white"/>
<path d="M19.3593 63.9997C19.698 63.9997 19.9661 63.9082 20.1637 63.7252C20.3613 63.5359 20.46 63.2897 20.46 62.9868C20.46 62.7343 20.3577 62.5324 20.1531 62.3809C19.9485 62.2231 19.6768 62.1411 19.3382 62.1348C19.0559 62.1285 18.7772 62.1726 18.502 62.2673C18.2339 62.362 18.0116 62.4882 17.8353 62.646L17.2637 62.1537C17.4966 61.9328 17.7964 61.7656 18.1634 61.652C18.5303 61.5384 18.9289 61.4816 19.3593 61.4816C19.9661 61.4816 20.4495 61.6204 20.8093 61.8981C21.1762 62.1758 21.3597 62.5387 21.3597 62.9868C21.3597 63.1951 21.3173 63.3907 21.2327 63.5737C21.148 63.7505 21.028 63.9051 20.8728 64.0376C20.7176 64.1702 20.5377 64.2743 20.333 64.35C20.7211 64.4068 21.0351 64.5583 21.275 64.8044C21.522 65.0443 21.6454 65.3314 21.6454 65.6659C21.6454 66.0004 21.5502 66.2939 21.3597 66.5463C21.1692 66.7988 20.901 66.9944 20.5553 67.1333C20.2096 67.2721 19.8038 67.3415 19.3382 67.3415C19.0136 67.3415 18.7172 67.3163 18.4491 67.2658C18.181 67.2216 17.9376 67.1522 17.7188 67.0575C17.5001 66.9566 17.3061 66.8335 17.1367 66.6883L17.6765 66.1487C17.9658 66.3381 18.2339 66.4769 18.4809 66.5653C18.7278 66.6473 19.0242 66.6883 19.3699 66.6883C19.7862 66.6883 20.1178 66.5968 20.3648 66.4138C20.6188 66.2245 20.7458 65.9783 20.7458 65.6754C20.7458 65.3661 20.5976 65.12 20.3013 64.937C20.0049 64.7476 19.6133 64.653 19.1265 64.653H18.6396V63.9997H19.3593Z" fill="white"/>
<path d="M25.3261 61.6236C26.3351 61.6236 27.1218 61.8792 27.6863 62.3904C28.2508 62.8953 28.533 63.599 28.533 64.5015C28.533 65.3472 28.2578 66.0099 27.7075 66.4895C27.1571 66.9629 26.3916 67.1995 25.4108 67.1995H22.5108V66.5463H23.5163V62.2768H22.5108V61.6236H25.3261ZM25.2203 66.5463C26.0176 66.5463 26.6174 66.3728 27.0195 66.0257C27.4288 65.6785 27.6334 65.1705 27.6334 64.5015C27.6334 63.7694 27.4358 63.2172 27.0407 62.8448C26.6526 62.4661 26.0811 62.2768 25.3261 62.2768H24.363V66.5463H25.2203Z" fill="white"/>
<path d="M32.051 61.6236H34.5911V62.2768H33.9137L33.9032 64.0187H36.9513L36.9619 62.2768H36.2845V61.6236H38.8141V62.2768H37.8086L37.7768 66.5463H38.7929V67.1995H36.2739V66.5463H36.9513V64.6719H33.9032L33.8926 66.5463H34.5699V67.1995H32.0404V66.5463H33.0565L33.067 62.2768H32.051V61.6236Z" fill="white"/>
<path d="M42.5593 61.4816C43.145 61.4816 43.653 61.6046 44.0834 61.8508C44.5209 62.0906 44.8595 62.4314 45.0994 62.8732C45.3464 63.3087 45.4699 63.8199 45.4699 64.4068C45.4699 64.9938 45.3464 65.5081 45.0994 65.9499C44.8595 66.3854 44.5209 66.7262 44.0834 66.9723C43.653 67.2185 43.1485 67.3415 42.5699 67.3415C41.9913 67.3415 41.4833 67.2185 41.0458 66.9723C40.6154 66.7262 40.2768 66.3854 40.0298 65.9499C39.7899 65.5081 39.6699 64.9938 39.6699 64.4068C39.6699 63.8199 39.7899 63.3087 40.0298 62.8732C40.2697 62.4314 40.6048 62.0906 41.0353 61.8508C41.4727 61.6046 41.9807 61.4816 42.5593 61.4816ZM42.5699 62.1442C41.9419 62.1442 41.4516 62.343 41.0988 62.7407C40.746 63.1383 40.5696 63.6937 40.5696 64.4068C40.5696 65.1263 40.746 65.6848 41.0988 66.0825C41.4516 66.4801 41.9419 66.6789 42.5699 66.6789C43.1979 66.6789 43.6883 66.4801 44.0411 66.0825C44.3939 65.6848 44.5703 65.1263 44.5703 64.4068C44.5703 63.6937 44.3939 63.1383 44.0411 62.7407C43.6883 62.343 43.1979 62.1442 42.5699 62.1442Z" fill="white"/>
<path d="M51.6002 65.1642C51.6002 65.8142 51.4132 66.3412 51.0392 66.7451C50.6652 67.1427 50.0726 67.3415 49.2611 67.3415C48.485 67.3415 47.917 67.1427 47.5571 66.7451C47.2043 66.3412 47.0279 65.8142 47.0279 65.1642V62.2768H46.0119V61.6236H48.552V62.2768H47.8746V65.4198C47.8746 65.8616 48.0017 66.1866 48.2557 66.3949C48.5097 66.5968 48.8448 66.6978 49.2611 66.6978C49.7127 66.6978 50.0726 66.5874 50.3407 66.3665C50.6159 66.1393 50.7534 65.7921 50.7534 65.3251V62.2768H50.0761V61.6236H52.6162V62.2768H51.6002V65.1642Z" fill="white"/>
<path d="M55.7885 67.3415C55.2876 67.3415 54.8501 67.3005 54.4761 67.2185C54.1092 67.1364 53.8023 67.0544 53.5554 66.9723L53.3543 65.8174L54.0528 65.7606L54.201 66.4706C54.4126 66.5337 54.6349 66.5874 54.8677 66.6315C55.1076 66.6757 55.411 66.6978 55.778 66.6978C56.039 66.6978 56.2789 66.6662 56.4977 66.6031C56.7234 66.5337 56.9034 66.4264 57.0374 66.2813C57.1785 66.1298 57.2491 65.9278 57.2491 65.6754C57.2491 65.4229 57.175 65.2052 57.0268 65.0222C56.8787 64.8391 56.5964 64.7224 56.1801 64.6719L55.3758 64.5678C54.769 64.4857 54.3033 64.3058 53.9787 64.0281C53.6612 63.7505 53.5024 63.4033 53.5024 62.9868C53.5024 62.7028 53.58 62.4472 53.7353 62.22C53.8976 61.9928 54.1445 61.8129 54.4761 61.6804C54.8078 61.5478 55.2276 61.4816 55.7356 61.4816C56.0108 61.4816 56.2542 61.491 56.4659 61.51C56.6846 61.5289 56.8928 61.5605 57.0904 61.6046C57.295 61.6488 57.5137 61.7119 57.7466 61.794L57.9265 62.9679L57.2279 63.0341L57.0904 62.2768C56.9492 62.2263 56.7658 62.1884 56.54 62.1632C56.3142 62.1316 56.0496 62.1158 55.7462 62.1158C55.2946 62.1158 54.9348 62.1884 54.6667 62.3336C54.4056 62.4787 54.2751 62.6902 54.2751 62.9679C54.2751 63.2329 54.3703 63.438 54.5608 63.5832C54.7584 63.7284 55.03 63.823 55.3758 63.8672L56.3389 63.9997C56.9386 64.0818 57.3796 64.2617 57.6619 64.5394C57.9512 64.8171 58.0958 65.161 58.0958 65.5712C58.0958 65.8616 58.0323 66.1203 57.9053 66.3475C57.7854 66.5684 57.6195 66.7514 57.4079 66.8966C57.1962 67.0418 56.9492 67.1522 56.667 67.2279C56.3918 67.3037 56.099 67.3415 55.7885 67.3415Z" fill="white"/>
<path d="M58.9757 61.6236H63.6749L64.2147 63.0815L63.5267 63.2897L63.1034 62.2768H60.8384V63.9903H62.8176V64.6435H60.8384L60.8279 66.5463H63.315L63.7384 65.5334L64.4263 65.7416L63.8866 67.1995H58.9651V66.5463H59.9811L59.9917 62.2768H58.9757V61.6236Z" fill="white"/>
<path d="M67.8649 61.6236H70.204L71.9821 65.6848L73.739 61.6236H75.9933V62.2768H74.9984V66.5463H75.9933V67.1995H73.4744V66.5463H74.1517V62.2768L73.6755 63.5075L72.3842 66.5274H71.474L70.1193 63.4885L69.6324 62.2768L69.6007 66.5463H70.2992V67.1995H67.8226V66.5463H68.8387L68.8492 62.2768H67.8649V61.6236Z" fill="white"/>
<path d="M76.4879 67.1995V66.5463H77.5039L79.2608 62.2768H78.1919V61.6236H80.2451L82.1608 66.5463H83.1663V67.1995H80.5944V66.5463H81.2612L80.9225 65.6848H78.6364L78.2765 66.5463H78.9539V67.1995H76.4879ZM78.901 65.0316H80.6685L79.8324 62.5797L78.901 65.0316Z" fill="white"/>
<path d="M86.4723 61.6236C87.2273 61.6236 87.8023 61.7719 88.1975 62.0685C88.5997 62.3651 88.8008 62.7975 88.8008 63.3655C88.8008 63.9398 88.5997 64.3784 88.1975 64.6814C87.8023 64.9843 87.2273 65.1358 86.4723 65.1358H85.4986V66.5463H86.7686V67.1995H83.6676V66.5463H84.6519V62.2768H83.6676V61.6236H86.4723ZM86.4617 64.4731C87.4213 64.4731 87.9011 64.107 87.9011 63.3749C87.9011 62.6428 87.4213 62.2768 86.4617 62.2768H85.5092V64.4731H86.4617Z" fill="white"/>
</svg>
