<svg width="119" height="68" viewBox="0 0 119 68" fill="none" xmlns="http://www.w3.org/2000/svg">
<g filter="url(#filter0_d_4421_25287)">
<path d="M88.1586 14.7781H103.953C104.14 16.5979 104.038 18.0203 103.637 19.1997C101.806 24.6199 94.1232 24.8282 88.272 24.8282L89.6011 30.3105H103.953C108.868 30.3105 111.523 39.708 105.546 39.708H91.9918L93.3209 45.4512H94.8809C100.87 45.4512 107.685 45.7022 111.466 50.2357C112.572 51.5625 113.33 53.0822 114.181 54.9795H99.5448C95.436 54.9795 91.1206 54.6419 87.9033 52.1468C85.0548 49.9344 83.8594 46.2937 83.0166 42.8356L79.1672 26.9963C78.3446 23.62 77.9921 19.7859 80.3625 17.2C82.2345 15.1568 85.3505 14.7781 88.1586 14.7781Z" fill="url(#paint0_linear_4421_25287)"/>
<path d="M4.82031 14.2595C4.82031 14.2595 11.8019 44.729 13.4227 50.2046C15.0436 55.6802 22.4709 56.4658 26.4297 51.0934C29.5093 46.9106 29.8699 46.057 29.878 45.8842C29.8658 45.8621 29.878 45.8522 29.878 45.8771C29.878 45.8795 29.878 45.8819 29.878 45.8842C29.9955 46.0946 30.6438 47.1723 33.4681 51.2238C36.7097 55.8747 44.4045 55.9645 46.3535 51.4622C48.3025 46.9604 55.9041 15.3072 56.4917 15.2159C52.8246 15.7267 50.2191 16.171 47.8933 18.0446C44.7367 20.5871 43.6144 24.7291 42.6135 28.6024L38.9505 42.7677C36.8313 38.7122 35.4212 35.725 30.9558 34.8564C30.8951 34.8445 30.8302 34.8398 30.7695 34.843C26.3366 35.0545 23.9053 37.1625 21.2796 42.4408L18.2933 29.1211C17.2762 24.5746 16.0606 19.6699 12.3206 16.7783C10.2784 15.1989 8.00925 14.6221 4.82031 14.2595Z" fill="url(#paint1_linear_4421_25287)"/>
<path d="M60.3001 18.9677C57.8851 25.3352 50.5996 54.8294 50.5996 54.8294C52.4676 54.8203 53.9952 54.678 55.3729 54.2577C60.8269 52.5945 62.7759 46.299 64.4373 40.9432L64.4859 40.7807C65.3328 38.0512 66.1107 35.6657 66.2769 35.5585C66.4592 35.4435 67.2939 38.186 68.1529 41.2191C69.6036 46.3243 71.2082 52.404 76.3502 54.1099C77.8171 54.5974 79.4824 54.7693 81.5571 54.8294C81.5571 54.8294 74.2229 24.1432 72.2576 18.9677C70.2884 13.7926 62.7151 12.6006 60.3001 18.9677Z" fill="url(#paint2_linear_4421_25287)"/>
<path d="M66.0872 11.6668C69.3892 11.6668 72.066 9.05512 72.066 5.83342C72.066 2.61172 69.3892 0 66.0872 0C62.7852 0 60.1084 2.61172 60.1084 5.83342C60.1084 9.05512 62.7852 11.6668 66.0872 11.6668Z" fill="url(#paint3_linear_4421_25287)"/>
</g>
<path d="M30.4929 66.3372C30.3876 66.3372 30.3228 66.2807 30.2863 66.1668L28.7384 61.2704C28.7181 61.2068 28.7263 61.1427 28.7627 61.0791C28.7992 61.0127 28.8599 60.9794 28.941 60.9794C28.9856 60.9794 29.0261 60.9933 29.0626 61.0209C29.099 61.0459 29.1234 61.0846 29.1396 61.1372L30.578 65.6849H30.4605L31.822 61.1498C31.8382 61.0889 31.8706 61.0447 31.9193 61.0166C31.9679 60.9889 32.0165 60.9751 32.0692 60.9751C32.1219 60.9751 32.1705 60.9889 32.2191 61.0166C32.2677 61.0447 32.3001 61.0889 32.3123 61.1498L33.6738 65.6849H33.5562L34.9947 61.1372C35.015 61.0846 35.0393 61.0459 35.0717 61.0209C35.1082 60.9933 35.1487 60.9794 35.1933 60.9794C35.2865 60.9794 35.3472 61.0111 35.3797 61.0751C35.4161 61.1388 35.4202 61.204 35.3999 61.2704L33.848 66.1668C33.8116 66.2807 33.7386 66.3372 33.6251 66.3372H33.6089C33.4955 66.3372 33.4185 66.2807 33.3861 66.1668L32.0043 61.5863H32.1178L30.7361 66.1668C30.7158 66.2364 30.6874 66.2819 30.6469 66.304C30.6064 66.3261 30.5537 66.3372 30.4929 66.3372Z" fill="url(#paint4_linear_4421_25287)"/>
<path d="M36.028 64.5415V64.8451C36.028 65.2357 36.1009 65.5101 36.2549 65.6682C36.4089 65.8232 36.6763 65.9007 37.0613 65.9007H37.7217C38.0621 65.9007 38.3093 65.8564 38.4632 65.7678C38.6172 65.6765 38.7104 65.52 38.7429 65.2982C38.751 65.229 38.7753 65.176 38.8077 65.14C38.8401 65.1041 38.8928 65.0863 38.9657 65.0863C39.0346 65.0863 39.0873 65.1068 39.1197 65.1483C39.1602 65.1875 39.1724 65.2428 39.1643 65.3148C39.1319 65.6639 38.9941 65.9216 38.7591 66.0881C38.52 66.2541 38.1756 66.3372 37.7217 66.3372H37.0613C36.5588 66.3372 36.1901 66.2182 35.9551 65.9798C35.72 65.7386 35.6025 65.3606 35.6025 64.8451V63.9057C35.6025 63.3819 35.72 63.0008 35.9551 62.7624C36.1901 62.5216 36.5588 62.4038 37.0613 62.4094H37.7217C38.2282 62.4094 38.5929 62.5299 38.8279 62.7707C39.0589 63.0091 39.1764 63.3874 39.1764 63.9057V64.3213C39.1764 64.4683 39.1075 64.5415 38.9697 64.5415H36.028ZM37.0613 62.8458C36.6763 62.8403 36.4089 62.9162 36.2549 63.0743C36.1009 63.2293 36.028 63.5064 36.028 63.9057V64.105H38.755V63.9057C38.755 63.5092 38.678 63.2337 38.5281 63.0783C38.3782 62.9233 38.1107 62.8458 37.7217 62.8458H37.0613Z" fill="url(#paint5_linear_4421_25287)"/>
<path d="M42.1997 66.3167C42.07 66.2586 42.0335 66.1613 42.0822 66.0257L44.0879 61.1499C44.1284 61.0364 44.2095 60.9795 44.323 60.9795H44.3472C44.4607 60.9823 44.5377 61.0392 44.5823 61.1499L46.588 66.0257C46.6407 66.1613 46.6042 66.2586 46.4746 66.3167C46.3408 66.372 46.2517 66.3333 46.199 66.2001L45.6601 64.8911H43.0142L42.4793 66.2001C42.4266 66.3333 42.3334 66.372 42.1997 66.3167ZM43.1884 64.4546H45.4818L44.3351 61.6694L43.1884 64.4546Z" fill="url(#paint6_linear_4421_25287)"/>
<path d="M47.706 66.3372C47.5642 66.3372 47.4912 66.2641 47.4912 66.117V62.6253C47.4912 62.4814 47.5642 62.4094 47.706 62.4094C47.8437 62.4094 47.9167 62.4814 47.9167 62.6253V63.2658C48.0545 62.9886 48.2571 62.7763 48.5204 62.6296C48.7879 62.4826 49.1039 62.4094 49.4645 62.4094C49.6104 62.4094 49.6793 62.4814 49.6793 62.6253C49.6793 62.7724 49.6104 62.8459 49.4645 62.8459C48.9864 62.8459 48.6136 62.9578 48.3502 63.1823C48.0869 63.4041 47.941 63.7216 47.9167 64.1343V66.117C47.9167 66.2641 47.8437 66.3372 47.706 66.3372Z" fill="url(#paint7_linear_4421_25287)"/>
<path d="M50.6919 64.5415V64.8451C50.6919 65.2357 50.7689 65.5101 50.9189 65.6682C51.0728 65.8232 51.3403 65.9007 51.7252 65.9007H52.3898C52.7301 65.9007 52.9732 65.8564 53.1272 65.7678C53.2852 65.6765 53.3784 65.52 53.4068 65.2982C53.4189 65.229 53.4392 65.176 53.4716 65.14C53.5081 65.1041 53.5608 65.0863 53.6296 65.0863C53.6985 65.0863 53.7512 65.1068 53.7877 65.1483C53.8242 65.1875 53.8404 65.2428 53.8323 65.3148C53.7958 65.6639 53.6621 65.9216 53.423 66.0881C53.188 66.2541 52.8436 66.3372 52.3898 66.3372H51.7252C51.2228 66.3372 50.854 66.2182 50.619 65.9798C50.388 65.7386 50.2705 65.3606 50.2705 64.8451V63.9057C50.2705 63.3819 50.388 63.0008 50.619 62.7624C50.854 62.5216 51.2228 62.4038 51.7252 62.4094H52.3898C52.8922 62.4094 53.2609 62.5299 53.4919 62.7707C53.7269 63.0091 53.8444 63.3874 53.8444 63.9057V64.3213C53.8444 64.4683 53.7755 64.5415 53.6337 64.5415H50.6919ZM51.7252 62.8458C51.3403 62.8403 51.0728 62.9162 50.9189 63.0743C50.7689 63.2293 50.6919 63.5064 50.6919 63.9057V64.105H53.4189V63.9057C53.4189 63.5092 53.346 63.2337 53.192 63.0783C53.0421 62.9233 52.7747 62.8458 52.3898 62.8458H51.7252Z" fill="url(#paint8_linear_4421_25287)"/>
<path d="M57.4872 66.3373C57.3454 66.3373 57.2725 66.2641 57.2725 66.117V61.1997C57.2725 61.053 57.3454 60.9795 57.4872 60.9795H60.5141C60.6559 60.9795 60.7248 61.053 60.7248 61.1997C60.7248 61.344 60.6559 61.416 60.5141 61.416H57.6979V63.4069H59.5578C59.7037 63.4069 59.7726 63.4789 59.7726 63.6232C59.7726 63.7699 59.7037 63.8434 59.5578 63.8434H57.6979V65.9008H60.5141C60.6559 65.9008 60.7248 65.9731 60.7248 66.117C60.7248 66.2641 60.6559 66.3373 60.5141 66.3373H57.4872Z" fill="url(#paint9_linear_4421_25287)"/>
<path d="M62.0175 66.3372C61.8716 66.3372 61.8027 66.2641 61.8027 66.117V62.6253C61.8027 62.4814 61.8716 62.4094 62.0175 62.4094C62.1552 62.4094 62.2241 62.4814 62.2241 62.6253V63.0246C62.4834 62.6142 62.9454 62.4094 63.614 62.4094H63.8409C64.3433 62.4094 64.7121 62.53 64.9431 62.7708C65.1781 63.0092 65.2956 63.3875 65.2956 63.9058V66.117C65.2956 66.2641 65.2267 66.3372 65.0849 66.3372C64.943 66.3372 64.8701 66.2641 64.8701 66.117V63.9058C64.8701 63.5093 64.7931 63.2337 64.6432 63.0784C64.4892 62.9234 64.2258 62.8459 63.8409 62.8459H63.614C63.1966 62.8459 62.8684 62.9135 62.6293 63.0495C62.3902 63.1851 62.2565 63.397 62.2241 63.6852V66.117C62.2241 66.2641 62.1552 66.3372 62.0175 66.3372Z" fill="url(#paint10_linear_4421_25287)"/>
<path d="M67.6623 68C67.3422 68 67.1031 67.932 66.933 67.7964C66.7668 67.6632 66.6696 67.4529 66.6412 67.1647C66.6331 67.0923 66.6453 67.0358 66.6858 66.9943C66.7223 66.9524 66.7749 66.9318 66.8438 66.9318C66.9087 66.9318 66.9613 66.9496 66.9937 66.986C67.0302 67.022 67.0545 67.0757 67.0626 67.1481C67.0829 67.3086 67.1397 67.4181 67.2288 67.4762C67.322 67.5343 67.4638 67.5636 67.6623 67.5636H69.1656C69.4006 67.5636 69.5627 67.5193 69.6438 67.4307C69.7329 67.3418 69.7734 67.1757 69.7734 66.9318V65.743C69.6519 65.9371 69.4736 66.0854 69.2508 66.1878C69.0238 66.2874 68.7361 66.3372 68.3877 66.3372H68.0838C67.5773 66.3372 67.2085 66.2182 66.9735 65.9798C66.7426 65.7387 66.625 65.3607 66.625 64.8452V63.9058C66.625 63.382 66.7385 63.0024 66.9695 62.7668C67.2045 62.5284 67.5773 62.4094 68.0838 62.4094H68.7442C69.0076 62.4094 69.2224 62.4454 69.3885 62.5174C69.5506 62.5893 69.6802 62.7016 69.7734 62.8542V62.6253C69.7734 62.4814 69.8464 62.4094 69.9882 62.4094C70.13 62.4094 70.1989 62.4814 70.1989 62.6253V66.9318C70.1989 67.2975 70.1138 67.5664 69.9477 67.7383C69.7816 67.9127 69.5182 68 69.1656 68H67.6623ZM68.0838 65.9007H68.3877C68.8091 65.9007 69.1454 65.8331 69.3966 65.6971C69.6478 65.5615 69.7734 65.3552 69.7734 65.078V63.6896C69.7734 63.3764 69.6883 63.1574 69.5181 63.0329C69.352 62.9079 69.0927 62.8459 68.7442 62.8459H68.0838C67.6988 62.8459 67.4273 62.9234 67.2734 63.0784C67.1234 63.231 67.0464 63.5065 67.0464 63.9058V64.8452C67.0464 65.2358 67.1234 65.5101 67.2734 65.6683C67.4273 65.8233 67.6988 65.9007 68.0838 65.9007Z" fill="url(#paint11_linear_4421_25287)"/>
<path d="M71.763 61.6527C71.5766 61.6527 71.4834 61.5543 71.4834 61.3578V61.1704C71.4834 60.9795 71.5766 60.8838 71.763 60.8838H71.9413C72.1236 60.8838 72.2127 60.9795 72.2127 61.1704V61.3578C72.2127 61.5543 72.1236 61.6527 71.9413 61.6527H71.763ZM71.8521 66.3372C71.7103 66.3372 71.6414 66.2641 71.6414 66.117V62.6253C71.6414 62.4814 71.7103 62.4094 71.8521 62.4094C71.9939 62.4094 72.0628 62.4814 72.0628 62.6253V66.117C72.0628 66.2641 71.9939 66.3372 71.8521 66.3372Z" fill="url(#paint12_linear_4421_25287)"/>
<path d="M73.789 66.3372C73.6431 66.3372 73.5742 66.2641 73.5742 66.117V62.6253C73.5742 62.4814 73.6431 62.4094 73.789 62.4094C73.9268 62.4094 73.9956 62.4814 73.9956 62.6253V63.0246C74.2509 62.6142 74.7169 62.4094 75.3855 62.4094H75.6124C76.1148 62.4094 76.4836 62.53 76.7145 62.7708C76.9496 63.0092 77.0671 63.3875 77.0671 63.9058V66.117C77.0671 66.2641 76.9982 66.3372 76.8563 66.3372C76.7145 66.3372 76.6416 66.2641 76.6416 66.117V63.9058C76.6416 63.5093 76.5646 63.2337 76.4106 63.0784C76.2607 62.9234 75.9933 62.8459 75.6124 62.8459H75.3855C74.9682 62.8459 74.6399 62.9135 74.4008 63.0495C74.1618 63.1851 74.0281 63.397 73.9956 63.6852V66.117C73.9956 66.2641 73.9268 66.3372 73.789 66.3372Z" fill="url(#paint13_linear_4421_25287)"/>
<path d="M78.8179 64.5415V64.8451C78.8179 65.2357 78.8949 65.5101 79.0448 65.6682C79.1988 65.8232 79.4662 65.9007 79.8511 65.9007H80.5157C80.8561 65.9007 81.1033 65.8564 81.2532 65.7678C81.4112 65.6765 81.5044 65.52 81.5327 65.2982C81.5449 65.229 81.5652 65.176 81.5976 65.14C81.6341 65.1041 81.6867 65.0863 81.7556 65.0863C81.8245 65.0863 81.8772 65.1068 81.9137 65.1483C81.9501 65.1875 81.9663 65.2428 81.9582 65.3148C81.9218 65.6639 81.788 65.9216 81.549 66.0881C81.314 66.2541 80.9695 66.3372 80.5157 66.3372H79.8511C79.3487 66.3372 78.98 66.2182 78.745 65.9798C78.514 65.7386 78.3965 65.3606 78.3965 64.8451V63.9057C78.3965 63.3819 78.514 63.0008 78.745 62.7624C78.98 62.5216 79.3487 62.4038 79.8511 62.4094H80.5157C81.0181 62.4094 81.3869 62.5299 81.6178 62.7707C81.8528 63.0091 81.9704 63.3874 81.9704 63.9057V64.3213C81.9704 64.4683 81.9015 64.5415 81.7597 64.5415H78.8179ZM79.8511 62.8458C79.4662 62.8403 79.1988 62.9162 79.0448 63.0743C78.8949 63.2293 78.8179 63.5064 78.8179 63.9057V64.105H81.5449V63.9057C81.5449 63.5092 81.472 63.2337 81.318 63.0783C81.1681 62.9233 80.9006 62.8458 80.5157 62.8458H79.8511Z" fill="url(#paint14_linear_4421_25287)"/>
<path d="M83.6882 64.5415V64.8451C83.6882 65.2357 83.7611 65.5101 83.911 65.6682C84.065 65.8232 84.3365 65.9007 84.7214 65.9007H85.3819C85.7223 65.9007 85.9695 65.8564 86.1234 65.7678C86.2774 65.6765 86.3706 65.52 86.399 65.2982C86.4111 65.229 86.4314 65.176 86.4638 65.14C86.5003 65.1041 86.553 65.0863 86.6218 65.0863C86.6948 65.0863 86.7475 65.1068 86.7799 65.1483C86.8163 65.1875 86.8325 65.2428 86.8244 65.3148C86.792 65.6639 86.6542 65.9216 86.4152 66.0881C86.1802 66.2541 85.8357 66.3372 85.3819 66.3372H84.7214C84.219 66.3372 83.8462 66.2182 83.6152 65.9798C83.3802 65.7386 83.2627 65.3606 83.2627 64.8451V63.9057C83.2627 63.3819 83.3802 63.0008 83.6152 62.7624C83.8462 62.5216 84.219 62.4038 84.7214 62.4094H85.3819C85.8884 62.4094 86.2531 62.5299 86.484 62.7707C86.719 63.0091 86.8366 63.3874 86.8366 63.9057V64.3213C86.8366 64.4683 86.7677 64.5415 86.6259 64.5415H83.6882ZM84.7214 62.8458C84.3365 62.8403 84.065 62.9162 83.911 63.0743C83.7611 63.2293 83.6882 63.5064 83.6882 63.9057V64.105H86.4111V63.9057C86.4111 63.5092 86.3382 63.2337 86.1882 63.0783C86.0343 62.9233 85.7668 62.8458 85.3819 62.8458H84.7214Z" fill="url(#paint15_linear_4421_25287)"/>
<path d="M88.4531 66.3372C88.3112 66.3372 88.2383 66.2641 88.2383 66.117V62.6253C88.2383 62.4814 88.3112 62.4094 88.4531 62.4094C88.5949 62.4094 88.6637 62.4814 88.6637 62.6253V63.2658C88.8015 62.9886 89.0041 62.7763 89.2675 62.6296C89.5349 62.4826 89.851 62.4094 90.2157 62.4094C90.3575 62.4094 90.4264 62.4814 90.4264 62.6253C90.4264 62.7724 90.3575 62.8459 90.2157 62.8459C89.7335 62.8459 89.3647 62.9578 89.0973 63.1823C88.8339 63.4041 88.688 63.7216 88.6637 64.1343V66.117C88.6637 66.2641 88.5949 66.3372 88.4531 66.3372Z" fill="url(#paint16_linear_4421_25287)"/>
<defs>
<filter id="filter0_d_4421_25287" x="0.820312" y="0" width="117.36" height="62.9795" filterUnits="userSpaceOnUse" color-interpolation-filters="sRGB">
<feFlood flood-opacity="0" result="BackgroundImageFix"/>
<feColorMatrix in="SourceAlpha" type="matrix" values="0 0 0 0 0 0 0 0 0 0 0 0 0 0 0 0 0 0 127 0" result="hardAlpha"/>
<feOffset dy="4"/>
<feGaussianBlur stdDeviation="2"/>
<feComposite in2="hardAlpha" operator="out"/>
<feColorMatrix type="matrix" values="0 0 0 0 0 0 0 0 0 0 0 0 0 0 0 0 0 0 0.25 0"/>
<feBlend mode="normal" in2="BackgroundImageFix" result="effect1_dropShadow_4421_25287"/>
<feBlend mode="normal" in="SourceGraphic" in2="effect1_dropShadow_4421_25287" result="shape"/>
</filter>
<linearGradient id="paint0_linear_4421_25287" x1="96.0479" y1="14.7781" x2="96.0479" y2="54.9795" gradientUnits="userSpaceOnUse">
<stop stop-color="#F5F5F5"/>
<stop offset="1" stop-color="#78787A"/>
</linearGradient>
<linearGradient id="paint1_linear_4421_25287" x1="30.656" y1="14.7379" x2="29.9115" y2="54.9325" gradientUnits="userSpaceOnUse">
<stop stop-color="#F5F5F5"/>
<stop offset="1" stop-color="#78787A"/>
</linearGradient>
<linearGradient id="paint2_linear_4421_25287" x1="66.0783" y1="14.628" x2="66.0783" y2="54.8294" gradientUnits="userSpaceOnUse">
<stop stop-color="#F5F5F5"/>
<stop offset="1" stop-color="#78787A"/>
</linearGradient>
<linearGradient id="paint3_linear_4421_25287" x1="66.0872" y1="3.95348e-05" x2="66.0872" y2="11.6668" gradientUnits="userSpaceOnUse">
<stop stop-color="#F5F5F5"/>
<stop offset="1" stop-color="#78787A"/>
</linearGradient>
<linearGradient id="paint4_linear_4421_25287" x1="61.5477" y1="60.8838" x2="61.5477" y2="68" gradientUnits="userSpaceOnUse">
<stop stop-color="#F5F5F5"/>
<stop offset="1" stop-color="#78787A"/>
</linearGradient>
<linearGradient id="paint5_linear_4421_25287" x1="61.5475" y1="60.8837" x2="61.5475" y2="68" gradientUnits="userSpaceOnUse">
<stop stop-color="#F5F5F5"/>
<stop offset="1" stop-color="#78787A"/>
</linearGradient>
<linearGradient id="paint6_linear_4421_25287" x1="61.5481" y1="60.8838" x2="61.5481" y2="68.0001" gradientUnits="userSpaceOnUse">
<stop stop-color="#F5F5F5"/>
<stop offset="1" stop-color="#78787A"/>
</linearGradient>
<linearGradient id="paint7_linear_4421_25287" x1="61.5477" y1="60.8838" x2="61.5477" y2="68" gradientUnits="userSpaceOnUse">
<stop stop-color="#F5F5F5"/>
<stop offset="1" stop-color="#78787A"/>
</linearGradient>
<linearGradient id="paint8_linear_4421_25287" x1="61.5474" y1="60.8837" x2="61.5474" y2="68" gradientUnits="userSpaceOnUse">
<stop stop-color="#F5F5F5"/>
<stop offset="1" stop-color="#78787A"/>
</linearGradient>
<linearGradient id="paint9_linear_4421_25287" x1="61.5474" y1="60.8838" x2="61.5474" y2="68.0001" gradientUnits="userSpaceOnUse">
<stop stop-color="#F5F5F5"/>
<stop offset="1" stop-color="#78787A"/>
</linearGradient>
<linearGradient id="paint10_linear_4421_25287" x1="61.5475" y1="60.8838" x2="61.5475" y2="68" gradientUnits="userSpaceOnUse">
<stop stop-color="#F5F5F5"/>
<stop offset="1" stop-color="#78787A"/>
</linearGradient>
<linearGradient id="paint11_linear_4421_25287" x1="61.5478" y1="60.8838" x2="61.5478" y2="68" gradientUnits="userSpaceOnUse">
<stop stop-color="#F5F5F5"/>
<stop offset="1" stop-color="#78787A"/>
</linearGradient>
<linearGradient id="paint12_linear_4421_25287" x1="61.5482" y1="60.8838" x2="61.5482" y2="68.0001" gradientUnits="userSpaceOnUse">
<stop stop-color="#F5F5F5"/>
<stop offset="1" stop-color="#78787A"/>
</linearGradient>
<linearGradient id="paint13_linear_4421_25287" x1="61.5478" y1="60.8838" x2="61.5478" y2="68" gradientUnits="userSpaceOnUse">
<stop stop-color="#F5F5F5"/>
<stop offset="1" stop-color="#78787A"/>
</linearGradient>
<linearGradient id="paint14_linear_4421_25287" x1="61.5481" y1="60.8837" x2="61.5481" y2="68" gradientUnits="userSpaceOnUse">
<stop stop-color="#F5F5F5"/>
<stop offset="1" stop-color="#78787A"/>
</linearGradient>
<linearGradient id="paint15_linear_4421_25287" x1="61.548" y1="60.8837" x2="61.548" y2="68" gradientUnits="userSpaceOnUse">
<stop stop-color="#F5F5F5"/>
<stop offset="1" stop-color="#78787A"/>
</linearGradient>
<linearGradient id="paint16_linear_4421_25287" x1="61.5475" y1="60.8838" x2="61.5475" y2="68" gradientUnits="userSpaceOnUse">
<stop stop-color="#F5F5F5"/>
<stop offset="1" stop-color="#78787A"/>
</linearGradient>
</defs>
</svg>
